<?xml version="1.0" encoding="iso-8859-1"?>
<!-- Generator: Adobe Illustrator 17.1.0, SVG Export Plug-In . SVG Version: 6.00 Build 0)  -->
<!DOCTYPE svg PUBLIC "-//W3C//DTD SVG 1.1//EN" "http://www.w3.org/Graphics/SVG/1.1/DTD/svg11.dtd">
<svg version="1.1" id="Capa_1" xmlns="http://www.w3.org/2000/svg" xmlns:xlink="http://www.w3.org/1999/xlink" x="0px" y="0px"
	 viewBox="0 0 345 345" style="enable-background:new 0 0 345 345;" xml:space="preserve">
<g>
	<circle cx="100.117" cy="207.114" r="26.036"/>
	<path d="M320,16H25C11.215,16,0,27.215,0,41v263c0,13.785,11.215,25,25,25h295c13.785,0,25-11.215,25-25V41
		C345,27.215,333.785,16,320,16z M100,63h145c8.284,0,15,6.716,15,15s-6.716,15-15,15H100c-8.284,0-15-6.716-15-15S91.716,63,100,63
		z M142.584,229.472c-4.024-0.994-5.922-0.805-3.257,1.696c30.619,28.741-27.546,62.616-37.569,22.427
		c-0.923-3.699-1.825-4.856-2.53-1.501c-8.912,42.391-68.554,8.366-38.184-20.669c2.708-2.589,2.996-3.787-0.298-2.721
		C18.97,242.222,19.432,170.599,62.13,186c2.9,1.046,3.323,0.62,1.002-1.327c-34.811-29.201,26.146-65.343,35.901-23.417
		c0.477,2.051,1.084,5.535,2.561,0.06c11.16-41.372,69.96-6.32,36.575,22.792c-2.455,2.141-2.217,2.778,0.821,1.721
		C180.282,171.459,181.48,239.084,142.584,229.472z M299,254h-89c-8.284,0-15-6.716-15-15s6.716-15,15-15h89c8.284,0,15,6.716,15,15
		S307.284,254,299,254z M299,191h-89c-8.284,0-15-6.716-15-15s6.716-15,15-15h89c8.284,0,15,6.716,15,15S307.284,191,299,191z"/>
</g>
<g>
</g>
<g>
</g>
<g>
</g>
<g>
</g>
<g>
</g>
<g>
</g>
<g>
</g>
<g>
</g>
<g>
</g>
<g>
</g>
<g>
</g>
<g>
</g>
<g>
</g>
<g>
</g>
<g>
</g>
</svg>
